<?xml version="1.0" encoding="utf-8"?>
<!-- Generator: Adobe Illustrator 19.2.0, SVG Export Plug-In . SVG Version: 6.00 Build 0)  -->
<!DOCTYPE svg PUBLIC "-//W3C//DTD SVG 1.1//EN" "http://www.w3.org/Graphics/SVG/1.1/DTD/svg11.dtd">
<svg version="1.1" id="Layer_1" xmlns="http://www.w3.org/2000/svg" xmlns:xlink="http://www.w3.org/1999/xlink" x="0px" y="0px"
	 viewBox="0 0 405 112" style="enable-background:new 0 0 405 112;" xml:space="preserve">
<style type="text/css">
	.st0{fill:#0033AB;}
</style>
<title>UTC_RGB_blue_two-line_16813fdb-5e6e-42a0-9525-f0352bfeea2e</title>
<path class="st0" d="M74.6,54.3c-0.1-0.8-0.3-1.6-0.6-2.3l25.2-6.4c0.3,0.9,0.5,1.8,0.7,2.7L74.6,54.3z M72.3,48.1
	c0.4,0.7,0.8,1.4,1.2,2.2l22.8-12.4c-0.4-0.9-0.9-1.9-1.5-2.7L72.3,48.1z M90.2,28.9c-0.8-1-1.7-1.9-2.6-2.7L69.1,44.4
	c0.8,0.7,1.6,1.5,2.3,2.3L90.2,28.9z M65.2,42c1.1,0.5,2.1,1.1,3.1,1.8l13.4-22.3c-1.1-0.8-2.3-1.5-3.5-2.1L65.2,42z M61,40.7
	c1.2,0.2,2.5,0.5,3.6,1l7.1-25.1c-1.3-0.5-2.6-0.9-4-1.1L61,40.7z M60.7,14.6c-0.7-0.1-1.6-0.1-2.3-0.1s-1.5,0-2.1,0.1l0.2,26.1
	c0.7-0.1,1.3-0.1,2-0.1c0.7,0,1.3,0,2,0.1L60.7,14.6z M74.1,96.2l-2.8-10l0.3-0.1l5.4,8.7c2.7-1.2,5.2-2.8,7.4-4.7l-5-8l0.3-0.2
	l7.1,6.2c2.4-2,4.4-4.4,6.2-7l-6.5-5.8l0.2-0.3l7.9,3.6c1.8-2.8,3.2-5.8,4.1-9l-7.2-3.3l0.1-0.3l7.9,0.9c0.8-3.3,1.2-6.6,1.2-10h-26
	c0,9-7.4,16.3-16.4,16.2s-16.3-7.4-16.2-16.4c0-8.1,6-15,14.1-16.1l-6.6-25.3c-1.5,0.3-3,0.7-4.5,1.2l6.5,23.7l-0.4,0.1L39.2,19.1
	c-1.5,0.7-3,1.5-4.3,2.5l12,19.9l-0.3,0.2L30.1,25.4c-1.3,1.1-2.5,2.3-3.6,3.6l15.9,15.2l-0.2,0.3l-19.1-11c-1.1,1.5-2,3.1-2.8,4.8
	l18.2,10l-0.1,0.3L18.4,43c-0.7,1.8-1.2,3.7-1.5,5.7L36,53.4l-0.1,0.4H16.2c-0.1,1-0.2,2.2-0.2,3.1s0.1,2.1,0.2,3l18.6-0.2v0.4
	l-18,4.5c0.3,2.1,0.9,4.2,1.6,6.2l16.8-4.6l0.1,0.3L20.1,75c0.9,2,2,4,3.3,5.8l13.8-8l0.2,0.3L26,84.2c1.5,1.8,3.1,3.5,4.9,4.9
	L41.2,79l0.3,0.2l-7.3,12.4c1.9,1.4,4,2.6,6.2,3.6L47,83.9l0.4,0.1L44,96.7c2.3,0.9,4.8,1.6,7.3,1.9l3.2-11.8l0.4,0.1l0.1,12.2
	c1.2,0.1,2.4,0.2,3.6,0.2c1.4,0,2.9-0.1,4.3-0.3V87.8l0.3-0.1l3.1,10.8C68.8,98.1,71.5,97.3,74.1,96.2"/>
<path class="st0" d="M127,18h8.9v26.1c0,1.7,0.5,3,2.4,3c1.7,0,2.4-1,2.4-3V18h8.9v25.3c0,5.9-3,10.5-11.4,10.5
	c-7,0-11.3-3.3-11.3-10.5V18z"/>
<path class="st0" d="M162,26.9l0.2,2.3h0.1c1.4-2,3.7-3.2,6.1-3.2c4.3,0,6.6,3.1,6.6,6.9v20h-8.4V34.7c0.2-1-0.5-1.9-1.5-2.1
	c-0.1,0-0.2,0-0.3,0c-1.1,0-1.9,0.9-1.9,2c0,0,0,0,0,0v18.3h-8.4v-26L162,26.9L162,26.9z"/>
<path class="st0" d="M180,18h8.6v6.3H180V18z M180,26.9h8.6v26.1H180V26.9z"/>
<path class="st0" d="M191.7,32.1v-5.5h2.4v-7.5h8.5v7.5h3.6v5.5h-3.6v13.3c-0.1,1.2,0.8,2.2,1.9,2.3c0.1,0,0.3,0,0.4,0
	c0.4,0,0.8,0,1.3,0v5.5h-4.8c-4.6,0-7.3-2.5-7.3-6.7V32.1H191.7L191.7,32.1z"/>
<path class="st0" d="M228.2,44v0.9c-0.1,5.3-3.1,8.9-9.6,8.9c-6,0-9.7-3-9.7-9V35c0-5.9,3.7-9,9.7-9c6.6,0,9.6,3.6,9.6,9v6.7h-11.5
	v4.7c0,1,0.8,1.8,1.8,1.8c0,0,0,0,0.1,0c1,0,1.8-0.8,1.8-1.8c0,0,0,0,0,0V44H228.2L228.2,44z M220.4,36.5v-3c-0.1-1-0.9-1.8-1.9-1.7
	c-0.9,0.1-1.6,0.8-1.7,1.7v3H220.4z"/>
<path class="st0" d="M252.8,18v35h-7.2l-0.1-2h-0.2c-1.3,1.9-3.5,3-5.8,2.8c-4.3,0-6.6-3-6.6-7.4v-13c0-4.4,2.7-7.3,6.5-7.3
	c1.9,0,3.8,0.6,5.2,1.8l0,0V18H252.8L252.8,18z M240.9,46c-0.1,1,0.6,1.9,1.5,2c0.1,0,0.2,0,0.3,0c1,0,1.8-0.8,1.9-1.8
	c0,0,0-0.1,0-0.1V33.5c0-1-0.7-1.9-1.7-1.9c0,0-0.1,0-0.1,0c-1,0-1.8,0.7-1.8,1.7c0,0.1,0,0.2,0,0.3C241,35,240.9,46,240.9,46z"/>
<path class="st0" d="M127,60.1h21.2v7h-6.1V95h-9.3V67.1H127C127,67.1,127,60.1,127,60.1z"/>
<path class="st0" d="M166,86.1v0.9c-0.1,5.3-3.1,8.8-9.6,8.8c-6,0-9.7-3-9.7-8.9v-9.8c0-5.9,3.7-8.9,9.7-8.9c6.6,0,9.6,3.6,9.6,8.9
	v6.7h-11.4v4.7c0,1,0.8,1.8,1.8,1.8c0,0,0,0,0.1,0c1,0,1.8-0.8,1.8-1.8v0v-2.4H166z M158.2,78.6v-3c-0.1-1-0.9-1.8-1.9-1.7
	c-0.9,0.1-1.6,0.8-1.7,1.7v3H158.2z"/>
<path class="st0" d="M190.9,85.1V87c0,5.4-3.5,8.9-10.2,8.9c-6,0-10.2-3-10.2-8.9v-9.8c0-5.9,4.1-8.9,10.2-8.9
	c6.6,0,10.2,3.6,10.2,8.9v1.6h-8.4v-3.1c-0.1-1-0.9-1.7-1.9-1.6c-0.9,0.1-1.5,0.8-1.6,1.6v12.8c0.1,1,0.9,1.7,1.9,1.6
	c0.9-0.1,1.5-0.8,1.6-1.6v-3.4H190.9L190.9,85.1z"/>
<path class="st0" d="M203.6,60.1v10.4l0,0c1.4-1.5,3.4-2.4,5.4-2.4c4.6,0,6.5,3.2,6.5,6.9c0,2.8,0,19.9,0,19.9h-8.4V76.8
	c0.1-1-0.6-1.9-1.6-2c-0.1,0-0.1,0-0.2,0c-1,0-1.9,0.9-1.9,1.9c0,0,0,0.1,0,0.1V95h-8.3V60.1H203.6z"/>
<path class="st0" d="M228.2,69.1l0.2,2.3h0.1c1.4-2,3.7-3.2,6.1-3.2c4.3,0,6.6,3.1,6.6,6.9v20h-8.4V76.9c0.2-1-0.5-1.9-1.5-2.1
	c-0.1,0-0.2,0-0.3,0c-1.1,0-1.9,0.9-1.9,2c0,0,0,0,0,0v18.3h-8.4v-26L228.2,69.1L228.2,69.1z"/>
<path class="st0" d="M245.7,77.2c0-5.9,4.1-8.9,10.1-8.9c6.6,0,10.1,3.6,10.1,8.9V87c0,5.4-3.5,8.9-10.1,8.9c-6,0-10.1-3-10.1-8.9
	V77.2z M253.9,88.5c0,1,0.8,1.8,1.8,1.8c0,0,0,0,0.1,0c1,0,1.9-0.8,1.9-1.8V75.7c0-1-0.9-1.8-1.9-1.8c-1,0-1.9,0.7-1.9,1.7
	c0,0,0,0,0,0L253.9,88.5L253.9,88.5z"/>
<path class="st0" d="M270.5,60.1h8.6V95h-8.6V60.1z"/>
<path class="st0" d="M283.7,77.2c0-5.9,4-8.9,10.1-8.9c6.6,0,10.1,3.6,10.1,8.9V87c0,5.4-3.5,8.9-10.1,8.9c-6,0-10.1-3-10.1-8.9
	V77.2z M291.9,88.5c0,1,0.8,1.8,1.8,1.8c0,0,0,0,0.1,0c1,0,1.9-0.8,1.9-1.8V75.7c0-1-0.9-1.8-1.9-1.8c-1,0-1.9,0.7-1.9,1.7
	c0,0,0,0,0,0V88.5L291.9,88.5z"/>
<path class="st0" d="M316.8,95.9v0.5c0,0.9,0.7,1.7,1.6,1.7c0,0,0.1,0,0.1,0c0.9,0,1.7-0.7,1.8-1.6c0,0,0-0.1,0-0.1v-4.2l0,0
	c-1.5,1.2-3.3,1.8-5.2,1.7c-4.1,0-6.4-2.7-6.4-7V75.4c0-4.2,2.3-7.2,6.5-7.2c2.3-0.1,4.4,1,5.8,2.8h0.2l0.1-2h7.1v25.7
	c0,5.3-2.6,8.8-9.9,8.8c-6.3,0-9.8-2.8-9.9-7.7L316.8,95.9L316.8,95.9z M316.8,87c-0.1,1,0.5,1.8,1.5,2c0.1,0,0.2,0,0.3,0
	c1,0,1.8-0.8,1.8-1.8c0,0,0-0.1,0-0.1V75.8c0.1-1-0.7-1.9-1.7-1.9c0,0-0.1,0-0.1,0c-1,0-1.8,0.7-1.8,1.7c0,0.1,0,0.2,0,0.3V87
	L316.8,87z"/>
<path class="st0" d="M333.8,60.2h8.6v6.3h-8.6V60.2z M333.8,69h8.6v26.1h-8.6V69L333.8,69z"/>
<path class="st0" d="M366.5,86.1v0.9c-0.1,5.3-3.1,8.8-9.6,8.8c-6,0-9.7-3-9.7-8.9v-9.8c0-5.9,3.7-8.9,9.7-8.9
	c6.6,0,9.6,3.6,9.6,8.9v6.7h-11.5v4.7c0,1,0.8,1.8,1.8,1.8c0,0,0,0,0.1,0c1,0,1.8-0.8,1.8-1.8v0v-2.4H366.5L366.5,86.1z M358.7,78.6
	v-3c-0.1-1-0.9-1.8-1.9-1.7c-0.9,0.1-1.6,0.8-1.7,1.7v3H358.7z"/>
<path class="st0" d="M389.9,77.4h-7.6v-1.6c0-0.6-0.2-1.1-0.5-1.5c-0.4-0.5-1-0.7-1.7-0.7c-0.6,0-1.2,0.2-1.6,0.6
	c-0.3,0.3-0.5,0.7-0.5,1.2c0,1,0.7,1.7,1.8,2.4s2.6,1.3,4,2c1.8,0.7,3.4,1.7,4.9,2.9c1.3,1.3,2.1,3.1,2,4.9c0.1,2.4-1,4.8-3,6.2
	c-2.2,1.4-4.9,2.2-7.5,2.1c-3.3,0-5.8-0.8-7.5-2.3c-1.8-1.7-2.7-4-2.6-6.5v-1h7.7v2.1c0,0.6,0.2,1.2,0.6,1.6
	c0.5,0.5,1.2,0.7,1.9,0.7c0.6,0,1.2-0.2,1.6-0.6c0.4-0.4,0.6-0.9,0.6-1.5c0-0.9-0.5-1.7-1.2-2.2c-1.2-0.8-2.4-1.5-3.8-2
	c-2-0.6-3.7-1.7-5.2-3.2c-1.2-1.4-1.9-3.2-1.8-5.1c-0.1-2.4,1-4.6,3-6c2-1.3,4.4-1.9,6.8-1.9c2.5-0.1,4.9,0.6,6.9,2
	c1.8,1.3,2.8,3.4,2.8,6.5L389.9,77.4L389.9,77.4z"/>
</svg>
